<?xml version="1.0" encoding="utf-8" ?>
<svg baseProfile="tiny" height="100%" version="1.2" width="100%" xmlns="http://www.w3.org/2000/svg" xmlns:ev="http://www.w3.org/2001/xml-events" xmlns:xlink="http://www.w3.org/1999/xlink"><defs /><polyline fill="white" points="300,360" stroke="none" /><polyline fill="white" points="60,357" stroke="none" /><polyline fill="white" points="363,327" stroke="none" /><polyline fill="white" points="15,276" stroke="none" /><polyline fill="white" points="3,160" stroke="none" /><polyline fill="white" points="209,89 211,91 211,93 213,95 213,96 214,97 214,98 215,99 215,100 216,101 216,102 218,104 218,105 219,106 219,107 220,108 220,109 221,110 221,111 295,111 296,112 296,226 295,227 295,230 294,231 294,232 293,233 293,234 292,235 292,236 284,244 283,244 280,247 279,247 278,248 277,248 276,249 274,249 273,250 271,250 270,251 266,251 265,252 254,252 253,251 250,251 249,250 247,250 246,249 244,249 243,248 242,248 241,247 240,247 239,246 238,246 228,236 228,235 227,234 227,233 226,232 226,231 225,230 225,229 223,227 223,226 222,225 222,224 221,223 221,222 219,220 219,219 218,218 218,217 217,216 217,215 216,214 216,213 214,211 214,210 213,209 213,208 211,206 211,204 209,202 209,200 207,198 207,197 206,196 206,195 204,193 204,192 203,191 203,190 202,189 202,188 201,187 201,186 199,184 199,183 198,182 198,181 197,180 197,179 196,178 196,177 194,175 194,174 193,173 193,172 192,171 192,170 191,169 191,168 189,166 189,165 188,164 188,163 187,162 187,161 186,160 186,159 184,157 184,156 183,155 183,154 182,153 182,152 181,151 181,150 180,149 179,150 179,151 177,153 177,154 176,155 176,156 175,157 175,158 173,160 173,161 172,162 172,163 171,164 171,165 170,166 170,167 168,169 168,171 166,173 166,174 165,175 165,176 163,178 163,179 162,180 162,181 161,182 161,183 159,185 159,186 158,187 158,188 157,189 157,190 156,191 156,192 154,194 154,195 153,196 153,197 152,198 152,199 151,200 151,201 149,203 149,204 148,205 148,206 147,207 147,208 146,209 146,210 144,212 144,214 142,216 142,217 141,218 141,219 139,221 139,223 137,225 137,226 136,227 136,228 135,229 135,230 134,231 134,232 132,234 132,235 131,236 131,237 130,238 130,239 129,240 129,241 127,243 127,244 126,245 126,246 125,247 125,248 123,250 123,251 122,252 122,253 121,254 121,255 120,256 120,257 119,258 119,259 117,261 117,262 116,263 116,264 115,265 115,266 114,267 114,268 112,270 112,271 111,272 136,272 137,271 137,270 138,269 138,268 139,267 139,266 140,265 140,264 142,262 142,261 143,260 143,259 144,258 144,257 146,255 146,254 147,253 147,252 148,251 148,250 150,248 150,246 152,244 152,243 153,242 153,241 154,240 154,239 155,238 155,237 157,235 157,234 158,233 158,232 159,231 159,230 160,229 160,228 162,226 162,225 163,224 163,223 164,222 164,221 166,219 166,217 168,215 168,214 169,213 169,212 171,210 171,208 173,206 173,205 174,204 174,203 176,201 176,199 178,197 178,196 180,194 181,195 181,196 182,197 182,198 184,200 184,201 185,202 185,203 186,204 186,205 187,206 187,207 189,209 189,211 191,213 191,214 192,215 192,216 193,217 193,218 194,219 194,220 196,222 196,223 197,224 197,225 199,227 199,228 200,229 200,230 201,231 201,232 202,233 202,234 203,235 203,236 205,238 205,239 206,240 206,241 207,242 207,243 209,245 209,246 210,247 210,248 211,249 211,250 220,259 221,259 223,261 224,261 226,263 227,263 228,264 229,264 230,265 231,265 232,266 233,266 234,267 235,267 236,268 237,268 238,269 242,269 243,270 245,270 246,271 250,271 251,272 268,272 269,271 273,271 274,270 277,270 278,269 281,269 282,268 283,268 284,267 286,267 287,266 288,266 289,265 290,265 291,264 292,264 293,263 294,263 296,261 297,261 301,257 302,257 306,253 306,252 310,248 310,247 312,245 312,244 313,243 313,241 315,239 315,236 316,235 316,233 317,232 317,89" stroke="none" /><polyline fill="white" points="169,89 168,90 168,91 167,92 167,93 166,94 166,95 165,96 165,97 163,99 163,100 162,101 162,102 161,103 161,104 160,105 160,106 159,107 159,108 157,110 157,111 156,112 156,113 154,115 154,116 153,117 153,118 152,119 152,120 151,121 151,122 149,124 149,125 148,126 148,127 147,128 147,129 146,130 146,131 144,133 144,135 142,137 142,138 141,139 141,140 139,142 139,144 137,146 137,147 136,148 136,149 135,150 135,151 134,152 134,153 132,155 132,156 131,157 131,158 130,159 130,160 128,162 128,163 127,164 127,165 126,166 126,167 125,168 125,169 123,171 123,172 122,173 122,174 121,175 121,176 120,177 120,178 119,179 119,180 117,182 117,183 116,184 116,185 114,187 114,189 112,191 112,192 111,193 111,194 110,195 110,196 109,197 109,198 107,200 107,201 106,202 106,203 104,205 104,207 103,208 103,209 101,211 101,212 100,213 100,214 99,215 99,216 97,218 97,219 95,221 95,223 93,225 93,226 92,227 92,228 91,229 91,230 90,231 90,232 88,234 88,235 87,236 87,237 86,238 86,239 85,240 85,241 83,243 83,244 82,245 82,246 81,247 81,248 80,249 80,250 78,252 78,253 77,254 77,255 76,256 76,257 75,258 75,259 74,260 74,261 72,263 72,264 71,265 71,266 70,267 70,268 69,269 69,270 67,272 92,272 93,271 93,270 94,269 94,268 96,266 96,265 97,264 97,263 98,262 98,261 99,260 99,259 101,257 101,256 102,255 102,254 103,253 103,252 104,251 104,250 106,248 106,247 107,246 107,245 108,244 108,243 110,241 110,240 111,239 111,238 112,237 112,236 113,235 113,234 115,232 115,230 117,228 117,227 118,226 118,225 120,223 120,221 122,219 122,218 123,217 123,216 124,215 124,214 126,212 126,211 127,210 127,209 128,208 128,207 130,205 130,204 131,203 131,201 133,199 133,198 134,197 134,196 135,195 135,194 137,192 137,191 138,190 138,189 139,188 139,187 140,186 140,185 142,183 142,182 143,181 143,180 144,179 144,178 146,176 146,175 147,174 147,173 148,172 148,171 149,170 149,169 150,168 150,167 152,165 152,164 153,163 153,162 154,161 154,160 156,158 156,157 157,156 157,154 159,152 159,151 161,149 161,148 162,147 162,146 163,145 163,144 164,143 164,142 166,140 166,139 167,138 167,137 169,135 169,133 171,131 171,129 173,127 173,126 174,125 174,124 176,122 176,121 177,120 177,119 179,117 179,116 180,115 181,116 181,117 182,118 182,119 184,121 184,122 185,123 185,124 186,125 186,126 188,128 188,129 189,130 189,131 190,132 190,133 191,134 191,135 192,136 192,137 194,139 194,140 195,141 195,142 196,143 196,144 197,145 197,146 198,147 198,148 199,149 199,150 201,152 201,153 202,154 202,155 204,157 204,158 205,159 205,160 206,161 206,162 207,163 207,164 208,165 208,166 210,168 210,169 211,170 211,171 212,172 212,173 213,174 213,175 215,177 215,178 216,179 216,180 218,182 218,183 219,184 219,185 220,186 220,187 221,188 221,189 222,190 222,191 224,193 224,194 225,195 225,196 226,197 226,198 227,199 227,200 229,202 229,203 230,204 230,205 231,206 231,207 232,208 232,209 233,210 233,211 235,213 235,214 236,215 236,216 238,218 238,220 240,222 240,223 241,224 241,225 242,226 242,227 243,228 243,229 245,231 245,232 270,232 269,231 269,230 268,229 268,228 267,227 267,226 265,224 265,223 264,222 264,221 263,220 263,219 262,218 262,217 261,216 261,215 259,213 259,212 258,211 258,210 257,209 257,208 255,206 255,205 254,204 254,203 253,202 253,201 252,200 252,199 250,197 250,196 249,195 249,194 248,193 248,192 246,190 246,188 245,187 245,186 243,184 243,183 242,182 242,181 241,180 241,179 239,177 239,176 238,175 238,174 237,173 237,172 236,171 236,170 234,168 234,167 233,166 233,165 232,164 232,163 230,161 230,159 228,157 228,156 227,155 227,154 226,153 226,152 224,150 224,149 223,148 223,147 222,146 222,145 221,144 221,143 219,141 219,140 218,139 218,138 216,136 216,134 215,133 215,132 213,130 213,129 212,128 212,127 211,126 211,125 209,123 209,122 208,121 208,120 207,119 207,118 206,117 206,116 205,115 205,114 203,112 203,111 202,110 202,109 201,108 201,107 200,106 200,105 198,103 198,102 197,101 197,100 196,99 196,98 195,97 195,96 193,94 193,93 192,92 192,91 191,90 191,89" stroke="none" /></svg>